<?xml version="1.0" standalone="no"?>
<!DOCTYPE svg PUBLIC "-//W3C//DTD SVG 20010904//EN"
 "http://www.w3.org/TR/2001/REC-SVG-20010904/DTD/svg10.dtd">
<svg version="1.0" xmlns="http://www.w3.org/2000/svg"
 width="141.000000pt" height="88.000000pt" viewBox="0 0 141.000000 88.000000"
 preserveAspectRatio="xMidYMid meet">

<g transform="translate(0.000000,88.000000) scale(0.100000,-0.100000)"
fill="#000000" stroke="none">
<path d="M726 818 c-9 -12 -16 -32 -15 -43 l0 -20 9 20 c4 12 15 27 24 34 9 7
16 17 16 22 0 16 -19 9 -34 -13z"/>
<path d="M759 802 c-25 -26 -32 -76 -17 -118 12 -34 12 -37 -15 -60 -16 -13
-34 -24 -42 -24 -7 0 -33 -9 -58 -19 -35 -15 -44 -24 -44 -44 0 -13 -12 -41
-26 -62 l-26 -38 -7 39 c-10 60 -17 64 -108 64 l-82 0 4 -41 c6 -59 -12 -87
-54 -86 -21 1 -33 6 -31 13 1 7 -2 12 -6 11 -5 -1 -14 7 -20 18 -11 18 -12 17
-17 -15 -5 -34 -6 -35 -57 -38 l-51 -3 -12 -49 c-6 -27 -18 -51 -26 -54 -8 -3
-14 -14 -14 -25 0 -26 63 -49 85 -31 20 17 35 4 35 -31 0 -64 74 -98 138 -65
75 38 99 44 165 37 4 -1 7 -7 7 -15 0 -7 9 -25 21 -40 16 -21 29 -26 63 -26
23 0 52 7 65 16 17 12 44 16 102 16 70 -1 79 1 79 17 0 10 -7 18 -15 18 -8 0
-15 -4 -15 -9 0 -16 -19 -8 -25 12 -3 11 -12 20 -18 20 -7 0 -29 19 -49 42
l-37 43 -1 -43 0 -43 -47 3 -48 3 -3 119 c-2 89 1 121 10 128 7 4 39 8 71 8
46 0 57 3 57 16 0 11 5 14 16 10 9 -3 18 -6 20 -6 3 0 2 -4 -1 -10 -3 -5 -1
-10 4 -10 6 0 11 9 11 20 0 11 -4 20 -10 20 -22 0 -7 27 35 63 32 27 56 39 87
42 24 2 60 10 82 18 l39 13 -47 47 c-25 26 -49 47 -54 47 -4 0 -25 23 -47 50
-22 28 -42 50 -45 49 -3 0 -12 -8 -21 -17z m18 -209 c-16 -16 -17 -16 -17 3 0
26 11 37 24 24 7 -7 5 -16 -7 -27z m-67 -33 c0 -5 -5 -10 -11 -10 -5 0 -7 5
-4 10 3 6 8 10 11 10 2 0 4 -4 4 -10z m-80 -72 c0 -16 -3 -19 -11 -11 -6 6 -8
16 -5 22 11 17 16 13 16 -11z m-190 3 c0 -25 -14 -71 -21 -71 -5 0 -9 18 -9
40 0 29 4 40 15 40 8 0 15 -4 15 -9z m40 -20 c0 -17 -4 -33 -10 -36 -6 -4 -10
8 -10 29 0 20 5 36 10 36 6 0 10 -13 10 -29z m-90 4 c0 -8 -4 -15 -10 -15 -5
0 -10 7 -10 15 0 8 5 15 10 15 6 0 10 -7 10 -15z m120 -36 c0 -11 -4 -17 -10
-14 -5 3 -10 13 -10 21 0 8 5 14 10 14 6 0 10 -9 10 -21z"/>
<path d="M680 644 c-25 -12 -62 -29 -82 -38 -21 -9 -38 -20 -38 -25 0 -6 24 1
53 14 28 14 59 25 68 25 15 0 57 37 48 43 -2 2 -24 -7 -49 -19z"/>
<path d="M348 563 c23 -2 59 -2 80 0 20 2 1 4 -43 4 -44 0 -61 -2 -37 -4z"/>
<path d="M545 520 c-3 -5 -1 -10 4 -10 6 0 11 5 11 10 0 6 -2 10 -4 10 -3 0
-8 -4 -11 -10z"/>
<path d="M780 486 c0 -17 14 -29 23 -20 8 8 -3 34 -14 34 -5 0 -9 -6 -9 -14z"/>
<path d="M850 484 c0 -9 -8 -23 -17 -31 -17 -14 -17 -14 0 -9 10 3 46 6 80 7
41 0 55 3 42 8 -11 5 -20 14 -20 21 0 7 -6 15 -12 18 -8 2 -13 -5 -13 -17 0
-16 -6 -21 -26 -21 -19 0 -25 4 -21 15 4 8 2 17 -3 20 -6 4 -10 -1 -10 -11z"/>
<path d="M1057 493 c-10 -9 -9 -33 1 -33 4 0 8 9 8 20 0 23 0 22 -9 13z"/>
<path d="M1121 482 c0 -12 -8 -25 -16 -28 -31 -12 -3 -22 33 -12 21 6 88 8
155 6 98 -4 117 -3 117 10 0 10 -7 12 -26 8 -19 -5 -30 -2 -39 11 -13 17 -14
17 -28 -1 -15 -20 -49 -16 -45 5 2 6 -3 14 -9 16 -8 3 -13 -4 -13 -16 0 -16
-6 -21 -25 -21 -17 0 -23 4 -19 14 3 8 0 17 -6 21 -7 4 -14 -2 -17 -14 -8 -30
-50 -29 -56 2 l-4 22 -2 -23z"/>
<path d="M980 470 c0 -11 6 -20 13 -20 7 0 13 9 14 20 1 11 -4 20 -13 20 -8 0
-14 -9 -14 -20z"/>
<path d="M129 433 c-48 -3 -58 -7 -63 -26 -8 -30 2 -35 20 -9 12 17 25 22 60
22 24 0 44 5 44 10 0 6 -1 9 -2 8 -2 -1 -28 -3 -59 -5z"/>
<path d="M570 320 l0 -110 35 0 c34 0 35 1 35 40 0 51 16 51 55 0 25 -33 36
-39 68 -40 20 0 37 3 37 7 0 4 -12 20 -27 36 -16 16 -23 31 -18 33 50 20 60
31 63 71 5 65 -10 73 -139 73 l-109 0 0 -110z m177 44 c8 -23 -15 -35 -62 -32
-33 3 -41 7 -43 26 -3 20 0 22 48 22 37 0 52 -4 57 -16z"/>
<path d="M844 415 c-10 -24 5 -35 47 -35 l39 0 0 -85 0 -85 35 0 35 0 0 85 0
85 45 0 c37 0 45 -3 45 -19 0 -42 31 -62 109 -69 112 -10 105 -31 -11 -34 -88
-3 -93 -4 -96 -25 -3 -23 -2 -23 111 -23 128 0 147 9 147 68 0 45 -30 62 -112
62 -61 0 -68 2 -68 20 0 19 7 20 90 20 89 0 90 0 90 25 l0 25 -110 0 c-95 0
-113 -3 -129 -19 -19 -19 -19 -19 -24 0 -5 17 -15 19 -121 19 -93 0 -118 -3
-122 -15z"/>
<path d="M52 363 c-6 -3 -9 -9 -6 -14 3 -6 0 -17 -7 -25 -18 -22 -5 -27 15 -5
20 21 18 50 -2 44z"/>
<path d="M873 353 c-38 -5 -45 -23 -9 -23 13 0 31 -3 40 -6 12 -4 16 0 16 15
0 12 -3 20 -7 19 -5 0 -23 -3 -40 -5z"/>
<path d="M1043 353 c-33 -6 -28 -23 7 -23 20 0 30 5 30 15 0 8 -3 14 -7 14 -5
-1 -18 -4 -30 -6z"/>
<path d="M1334 345 c37 -20 76 -20 76 0 0 11 -12 15 -52 15 l-53 0 29 -15z"/>
<path d="M843 273 c-67 -5 -69 -23 -3 -24 28 -1 56 -2 62 -3 7 -1 14 7 16 17
2 10 -2 16 -10 15 -7 -1 -37 -3 -65 -5z"/>
<path d="M1043 273 c-13 -2 -23 -11 -23 -19 0 -19 56 -19 63 1 5 10 28 15 94
18 l88 3 -100 1 c-55 0 -110 -2 -122 -4z"/>
<path d="M1370 255 c0 -8 9 -15 20 -15 11 0 20 7 20 15 0 8 -9 15 -20 15 -11
0 -20 -7 -20 -15z"/>
<path d="M840 150 c0 -11 5 -20 10 -20 6 0 10 9 10 20 0 11 -4 20 -10 20 -5 0
-10 -9 -10 -20z"/>
<path d="M870 150 c0 -22 16 -35 25 -20 3 5 1 10 -4 10 -6 0 -11 5 -11 12 0 6
7 4 18 -5 25 -22 42 -21 42 2 0 15 -7 19 -35 19 -27 0 -35 -4 -35 -18z"/>
<path d="M950 149 c0 -14 7 -19 29 -19 23 0 29 4 28 19 -2 27 -57 27 -57 0z"/>
<path d="M1027 150 c-3 -11 -1 -23 4 -26 5 -3 9 -1 9 5 0 5 3 16 6 25 3 9 2
16 -4 16 -5 0 -12 -9 -15 -20z"/>
<path d="M1084 154 c3 -9 6 -18 6 -20 0 -10 49 -3 53 9 4 9 7 9 14 -1 6 -8 32
-12 77 -11 56 1 66 4 64 18 -5 24 -75 27 -81 4 -4 -17 -5 -17 -6 0 -1 21 -21
23 -21 2 0 -8 -4 -15 -10 -15 -5 0 -10 7 -10 15 0 20 -14 19 -31 -1 -12 -14
-14 -14 -20 3 -7 17 -8 17 -8 0 -1 -10 -6 -15 -11 -12 -6 4 -8 11 -5 16 4 5 1
9 -5 9 -7 0 -9 -7 -6 -16z m206 -4 c0 -5 -4 -10 -10 -10 -5 0 -10 5 -10 10 0
6 5 10 10 10 6 0 10 -4 10 -10z"/>
</g>
</svg>
